<svg width="222" height="110" viewBox="0 0 222 110" fill="none" xmlns="http://www.w3.org/2000/svg">
<path fill-rule="evenodd" clip-rule="evenodd" d="M134.933 0H86.6401L74.312 13.6501V45.9954H106.641V30.1484H114.931V45.9954H147.261V13.6501L134.933 0ZM23.3103 86.4596H16.9148H16.9062V74.329H6.35268V86.4596H0V54.6526H6.35268V68.0076H16.9148V54.6526H23.3103V86.4596ZM50.9072 86.4596H31.772V54.6526H50.9072V60.9741H37.9618V67.5994H50.9072V73.8341H37.9618V80.1381H50.9072V86.4596ZM74.2175 86.4596H81.6333L75.0834 75.3884V75.0931L75.212 75.0323C78.6241 73.4433 80.4245 70.1697 80.4245 65.5589C80.4245 58.6296 76.7637 54.6526 70.3682 54.6526H59.386V86.4596H65.6187V76.057H68.3106L74.2175 86.4596ZM68.9536 69.8745H65.6187V60.8873H69.0822C71.9714 60.8873 73.8317 62.65 73.8317 65.3852C73.8317 68.1204 71.9628 69.8745 68.9622 69.8745H68.9536ZM106.684 86.4596H87.5487V54.6526H106.684V60.9741H93.7385V67.5994H106.684V73.8341H93.7385V80.1381H106.684V86.4596ZM114.974 86.4596H124.825C133.664 86.4596 139.365 80.2336 139.365 70.6039C139.365 60.9741 133.466 54.6526 124.696 54.6526H114.966V86.4596H114.974ZM124.379 80.1381H121.207V60.9741H124.868C129.377 60.9741 132.772 65.116 132.772 70.6039C132.772 76.0917 129.24 80.1381 124.379 80.1381ZM152.353 86.4596H145.957V54.6526H152.353V86.4596ZM160.549 54.6526V73.2349C160.549 81.7966 164.895 86.9111 172.183 86.9111C179.47 86.9111 183.893 81.7966 183.893 73.2349V54.6526H177.541V72.74C177.541 77.2205 175.389 80.2336 172.183 80.2336C168.976 80.2336 166.944 77.29 166.944 72.74V54.6526H160.549ZM221.152 86.4596H214.885V67.7644L208.618 80.5549H204.563L198.296 67.8078V86.4596H192.021V54.6526H198.459L206.424 71.7327H206.784L214.714 54.6526H221.152V86.4596ZM125.322 109.679V108.124H122.218V108.098L123.83 106.422C124.936 105.276 125.245 104.512 125.245 103.531C125.245 101.933 123.967 100.978 122.544 100.978C121.121 100.978 120.221 101.699 119.724 102.61L120.932 103.488C121.31 102.862 121.815 102.558 122.407 102.558C123.076 102.558 123.547 103.036 123.547 103.722C123.547 104.408 123.084 104.998 122.407 105.736L119.758 108.567L119.784 109.679H125.322ZM126.719 105.389C126.719 102.758 127.971 100.978 130.02 100.978C132.069 100.978 133.338 102.61 133.338 105.389C133.338 108.02 132.086 109.783 130.02 109.783C128.065 109.783 126.719 108.168 126.719 105.389ZM131.615 105.389C131.615 103.644 131.032 102.567 130.029 102.567C129.025 102.567 128.434 103.557 128.434 105.389C128.434 107.117 129.025 108.211 130.029 108.211C131.032 108.211 131.615 107.204 131.615 105.389ZM140.128 109.679V108.124H137.024V108.098L138.636 106.422C139.742 105.276 140.051 104.512 140.051 103.531C140.051 101.933 138.773 100.978 137.35 100.978C135.927 100.978 135.027 101.699 134.529 102.61L135.738 103.488C136.115 102.862 136.621 102.558 137.213 102.558C137.882 102.558 138.353 103.036 138.353 103.722C138.353 104.408 137.89 104.998 137.213 105.736L134.564 108.567L134.589 109.679H140.128ZM147.406 108.124V109.679H141.868L141.842 108.567L144.491 105.736C145.169 104.998 145.632 104.408 145.632 103.722C145.632 103.036 145.16 102.558 144.491 102.558C143.9 102.558 143.394 102.862 143.017 103.488L141.808 102.61C142.305 101.699 143.205 100.978 144.629 100.978C146.052 100.978 147.329 101.933 147.329 103.531C147.329 104.512 147.02 105.276 145.923 106.422L144.311 108.098V108.124H147.406ZM106.632 93.8664H114.923V109.713H106.632V93.8664ZM77.2781 103.131L75.8549 104.208L75.0491 102.94L77.621 101.074H78.967V109.679H77.2781V103.131ZM82.6706 110C85.3354 109.479 87.2037 107.267 87.2058 104.439C87.204 102.374 85.8587 100.987 84.1366 100.987C82.4134 100.987 81.0931 102.098 81.0931 103.852C81.0931 105.606 82.2676 106.605 83.6822 106.605C84.2395 106.605 84.7967 106.466 85.2682 106.214H85.2768C84.771 107.456 83.7165 108.194 82.1733 108.619L82.6706 110ZM85.6026 104.417C85.2519 104.841 84.7134 105.179 84.1319 105.181C83.2603 105.179 82.7477 104.641 82.7477 103.878C82.7477 103.149 83.305 102.524 84.1709 102.524C84.9853 102.524 85.6026 103.227 85.6026 104.304V104.417ZM94.15 108.124V109.679H88.6118L88.586 108.567L91.2351 105.736C91.9124 104.998 92.3754 104.408 92.3754 103.722C92.3754 103.036 91.9038 102.558 91.2351 102.558C90.6436 102.558 90.1378 102.862 89.7606 103.488L88.5518 102.61C89.049 101.699 89.9492 100.978 91.3723 100.978C92.7954 100.978 94.0728 101.933 94.0728 103.531C94.0728 104.512 93.7642 105.276 92.6668 106.422L91.0551 108.098V108.124H94.15ZM101.429 109.679V108.124H98.3337V108.098L99.9454 106.422C101.043 105.276 101.351 104.512 101.351 103.531C101.351 101.933 100.074 100.978 98.6509 100.978C97.2277 100.978 96.3276 101.699 95.8303 102.61L97.0391 103.488C97.4164 102.862 97.9222 102.558 98.5137 102.558C99.1824 102.558 99.6539 103.036 99.6539 103.722C99.6539 104.408 99.191 104.998 98.5137 105.736L95.8646 108.567L95.8903 109.679H101.429Z" fill="#1C1C1B"/>
</svg>
