<svg width="60" height="60" viewBox="0 0 60 60" fill="none" xmlns="http://www.w3.org/2000/svg">
<path fill-rule="evenodd" clip-rule="evenodd" d="M21.5201 16.7876V9.36438H38.4799V16.7876C38.4799 19.1757 37.3377 21.4345 35.3866 22.8511L30 26.7668L24.6126 22.8505C22.6614 21.4339 21.5201 19.1757 21.5201 16.7876ZM42.1451 9.36438V16.7876C42.1451 20.4006 40.418 23.7873 37.5134 25.8966L33.1582 29.0625L37.5126 32.2278C40.4177 34.3371 42.1451 37.724 42.1451 41.3374V48.7606H45V52.5H15V48.7606H17.8549V41.3374C17.8549 37.7244 19.582 34.3377 22.4866 32.2284L26.8419 29.0625L22.4875 25.8972C19.5829 23.7879 17.8549 20.4006 17.8549 16.7876V9.36438H15V5.625H19.6875H42.1451H45V9.36438H42.1451ZM30 31.3582L24.6134 35.2739C22.6623 36.6905 21.5201 38.9493 21.5201 41.3374V48.7606H38.4799V41.3374C38.4799 38.9493 37.3386 36.6911 35.3875 35.2745L30 31.3582Z" fill="white"/>
</svg>
