<svg width="60" height="60" viewBox="0 0 60 60" fill="none" xmlns="http://www.w3.org/2000/svg">
<path fill-rule="evenodd" clip-rule="evenodd" d="M36.6426 9.75781L45.4531 18.4454L36.6426 27.1329L34.0096 24.4627L38.2106 20.3204H17.2174C11.7559 20.3204 7.375 24.69 7.375 30.0202C7.375 33.4119 9.13989 36.3924 11.8474 38.1251L9.82607 41.2837C6.09968 38.899 3.625 34.7582 3.625 30.0202C3.625 22.5782 9.72581 16.5704 17.2174 16.5704H38.2106L34.0096 12.428L36.6426 9.75781ZM48.1609 21.9033C50.8569 23.6343 52.625 26.6356 52.625 30.0202C52.625 35.3206 48.253 39.6675 42.7826 39.6675H21.8L25.9904 35.5357L23.3574 32.8654L14.5469 41.553L23.3574 50.2405L25.9904 47.5703L21.7788 43.4175H42.7826C50.2652 43.4175 56.375 37.45 56.375 30.0202C56.375 25.2961 53.9035 21.134 50.187 18.7477L48.1609 21.9033Z" fill="white"/>
</svg>
