<svg width="60" height="60" viewBox="0 0 60 60" fill="none" xmlns="http://www.w3.org/2000/svg">
<path fill-rule="evenodd" clip-rule="evenodd" d="M29.9805 25.0146C27.234 25.0146 25.0076 27.2397 25.0076 29.9845C25.0076 32.7293 27.234 34.9544 29.9805 34.9544C32.7269 34.9544 34.9534 32.7293 34.9534 29.9845C34.9534 27.2397 32.7269 25.0146 29.9805 25.0146ZM21.2485 29.9845C21.2485 25.1649 25.158 21.2578 29.9805 21.2578C34.803 21.2578 38.7124 25.1649 38.7124 29.9845C38.7124 34.8041 34.803 38.7112 29.9805 38.7112C25.158 38.7112 21.2485 34.8041 21.2485 29.9845Z" fill="white"/>
<path fill-rule="evenodd" clip-rule="evenodd" d="M24.9058 5.625H35.1036L35.5167 11.2194C35.5711 12.0102 36.0583 12.7107 36.8462 13.0618L36.9773 13.1164C37.774 13.4477 38.6943 13.3004 39.3543 12.7337C39.3549 12.7333 39.3555 12.7328 39.356 12.7323L43.6411 9.02924L50.8512 16.235L47.1431 20.5208L47.1402 20.5242C46.5922 21.1545 46.4363 22.0328 46.7315 22.8186C46.765 22.8881 46.7948 22.9602 46.8204 23.0346C47.1614 23.7828 47.8861 24.292 48.7277 24.3552C48.7271 24.3552 48.7282 24.3553 48.7277 24.3552L54.375 24.7655V33.6572L53.6886 35.0293L48.7204 35.3902C48.7198 35.3903 48.721 35.3902 48.7204 35.3902C47.8794 35.4539 47.1416 35.9721 46.804 36.7255L46.7779 36.7884C46.7724 36.8018 46.7671 36.8145 46.7621 36.8263L46.7519 36.8508C46.4203 37.6472 46.5678 38.567 47.1349 39.2267C47.1353 39.2271 47.1357 39.2276 47.1362 39.2281L50.8403 43.5093L43.6351 50.725L39.3462 47.0329C38.7359 46.5079 37.8927 46.3445 37.127 46.599C37.056 46.6387 36.9667 46.6827 36.8606 46.7222C36.1083 47.0516 35.5718 47.8028 35.5063 48.6719C35.5062 48.6726 35.5061 48.6733 35.5061 48.674L35.0976 54.375H24.8926L24.4841 48.674C24.4841 48.6733 24.484 48.6726 24.484 48.6719C24.4172 47.7872 23.8703 47.0159 23.1432 46.6892L23.0227 46.639C22.2257 46.3076 21.3051 46.4551 20.645 47.0222C20.6447 47.0225 20.6454 47.0219 20.645 47.0222L16.3589 50.7262L9.14876 43.5204L12.8541 39.2379C12.8537 39.2383 12.8544 39.2375 12.8541 39.2379C13.4075 38.5942 13.5625 37.7016 13.2617 36.9189C13.2378 36.8687 13.2102 36.8051 13.1837 36.7298C12.8444 35.9767 12.1172 35.4637 11.2723 35.4002C11.2718 35.4001 11.2728 35.4002 11.2723 35.4002L5.625 34.99V24.7945L11.2796 24.3848C11.2791 24.3848 11.2801 24.3847 11.2796 24.3848C12.1208 24.3212 12.8584 23.8029 13.196 23.0494L13.2482 22.9241C13.5799 22.1275 13.4321 21.2072 12.8643 20.5474C12.8642 20.5472 12.8645 20.5476 12.8643 20.5474L9.16057 16.2525L16.3686 9.04881L20.6538 12.7519C20.6533 12.7515 20.6542 12.7522 20.6538 12.7519C21.3139 13.3188 22.2356 13.4673 23.0325 13.1359L23.3736 12.9941C24.0218 12.6224 24.4374 11.9701 24.4938 11.2196C24.4938 11.22 24.4938 11.2192 24.4938 11.2196L24.9058 5.625ZM22.8424 46.5448C22.8432 46.5453 22.8443 46.5459 22.8456 46.5467C22.8352 46.5409 22.8335 46.5397 22.8424 46.5448ZM37.6639 46.1565C37.6746 46.1444 37.6805 46.1374 37.6791 46.1389C37.6782 46.1399 37.6745 46.1442 37.6673 46.1527C37.6666 46.1534 37.6648 46.1555 37.6639 46.1565ZM28.3984 9.38177L28.2427 11.4959C28.0715 13.7911 26.6239 15.7459 24.5156 16.6085L24.1733 16.7486H24.0941C22.0697 17.4343 19.8269 16.9972 18.2017 15.5993L18.1984 15.5964L16.5545 14.1759L14.2867 16.4424L15.7121 18.0953C17.1734 19.7921 17.5863 22.1635 16.7642 24.2549C16.7314 24.3534 16.6959 24.4337 16.6671 24.4926C15.778 26.5705 13.7962 27.9635 11.5607 28.131L11.5561 28.1314L9.38404 28.2888V31.4963L11.5501 31.6537C13.8299 31.8235 15.8239 33.2558 16.6935 35.3784L16.8336 35.7205V35.7429C17.5475 37.7808 17.1151 40.049 15.7032 41.6885L15.7003 41.6918L14.2789 43.3346L16.5448 45.5991L18.1886 44.1785L18.1919 44.1757C19.8897 42.7153 22.2616 42.3035 24.3543 43.1251C24.453 43.1579 24.5335 43.1936 24.5925 43.2223C26.7021 44.1255 28.068 46.1851 28.2327 48.3948L28.2332 48.4002L28.3921 50.6182H31.5981L31.7571 48.4002L31.7575 48.3948C31.9166 46.2611 33.1885 44.3315 35.1278 43.3849L35.1797 43.3331L35.5234 43.1901C37.6346 42.3122 40.0629 42.6927 41.7983 44.1855L43.4417 45.6002L45.7124 43.3262L44.2899 41.682L44.287 41.6787C42.8751 40.0392 42.4427 37.771 43.1566 35.7331V35.7107L43.2473 35.4894C43.2539 35.4707 43.2605 35.4531 43.2668 35.4366C43.2857 35.3879 43.3045 35.3453 43.3213 35.3097C44.2047 33.2167 46.194 31.8123 48.4392 31.644L48.4436 31.6436L50.616 31.4858V28.2591L48.4534 28.102L48.4499 28.1017C46.2859 27.9405 44.3794 26.6419 43.4477 24.6951L43.4341 24.6816L43.3583 24.4995C43.3406 24.4589 43.3234 24.4181 43.3065 24.377L43.1664 24.035V24.0127C42.4542 21.9815 42.8699 19.7089 44.3018 18.0612C44.3015 18.0615 44.3021 18.0609 44.3018 18.0612L45.7211 16.4208L43.4552 14.1563L41.8081 15.5797C40.1139 17.037 37.7485 17.4502 35.659 16.6355C35.562 16.6043 35.4686 16.5659 35.3797 16.5212C33.3548 15.6454 31.925 13.7532 31.7668 11.4821C31.7667 11.4804 31.7666 11.4787 31.7665 11.477L31.6117 9.38177H28.3984Z" fill="white"/>
</svg>
