<svg width="32" height="32" viewBox="0 0 32 32" fill="none" xmlns="http://www.w3.org/2000/svg">
<path d="M11.3118 5.90782C12.8002 5.30398 14.3772 5 16.0012 5C17.7859 5 19.5089 5.36633 21.1181 6.0899C25.302 7.97095 28 12.1617 28 16.7586V25.9011L23.1291 26.9538C22.9932 26.9861 22.8601 26.9977 22.7356 26.9977C22.3354 26.9977 21.9428 26.8644 21.6237 26.617C21.1965 26.2866 20.9491 25.7873 20.9491 25.2528V18.5639C20.9491 18.0292 21.1967 17.5296 21.6244 17.1992C22.0494 16.8709 22.5958 16.7479 23.1258 16.8617L26.6035 17.6125V16.7609C26.6035 12.6959 24.2191 9.00087 20.5374 7.34455C19.1138 6.70327 17.5873 6.37781 16.0012 6.37781C14.559 6.37781 13.16 6.64793 11.8436 7.18086C7.93016 8.76751 5.39884 12.5273 5.39884 16.7724V17.6148L8.87604 16.8641C9.40441 16.75 9.95101 16.8735 10.3756 17.2015C10.8033 17.5319 11.0509 18.0315 11.0509 18.5662V25.2551C11.0509 25.7893 10.8038 26.2883 10.377 26.6187C10.0554 26.8707 9.66173 27 9.26437 27C9.1321 27 9.00191 26.984 8.87747 26.9576L8.87601 26.9572L4 25.9034V16.7678C4 11.9721 6.86872 7.7059 11.3118 5.90782Z" fill="#111111"/>
</svg>
